<svg width="141" height="141" viewBox="0 0 141 141" fill="none" xmlns="http://www.w3.org/2000/svg">
<path d="M83.9902 72.8505C80.7556 73.7237 80.3864 73.9053 77.1693 74.8253C73.7178 72.8505 70.6824 71.743 67.8227 72.1122C68.1567 70.319 68.7076 69.0357 69.2584 67.4242C75.3293 66.5394 79.8356 69.7682 83.9902 72.8505V72.8505ZM115.095 115.048C111.718 118.431 107.97 121.421 103.92 123.961H103.885L82.1912 96.9231L100.181 98.892C100.181 98.892 108.801 99.7769 110.77 98.892C112.575 98.2064 122.273 84.5411 122.273 84.5411C122.273 84.5411 94.3857 66.9086 84.8634 57.1987C85.965 40.8261 83.6152 19.0565 83.6152 19.2323C76.6243 26.2349 75.7043 27.3365 68.7076 33.8176C65.6604 23.9261 64.2013 20.5214 61.1541 10.624C51.9658 18.1775 44.9632 30.9228 39.9412 45.8773C38.8206 47.1208 37.7437 48.4029 36.7124 49.7214C36.0561 50.6414 35.3646 51.5556 34.6966 52.5049C33.3429 54.4152 32.0596 56.4603 30.8115 58.5523C29.9325 60.0583 29.0593 61.5995 28.2448 63.1699C27.8756 63.8263 27.5123 64.5236 27.1432 65.2209C21.793 75.6985 17.3219 87.4241 13.4368 98.0599C9.23152 89.4167 7.04542 79.9309 7.04362 70.319C7.04362 53.5421 13.7122 37.4215 25.5844 25.5493C37.4566 13.6771 53.5304 7.03776 70.3073 7.03776C78.6213 7.02969 86.8555 8.65985 94.5393 11.8351C102.223 15.0104 109.206 19.6685 115.089 25.5434C126.93 37.4349 133.579 53.5318 133.583 70.3132C133.582 87.0837 126.934 103.17 115.095 115.048V115.048ZM70.3073 39.2087C75.1828 34.5149 75.8801 33.8176 80.5681 29.3113C80.9372 38.2887 80.7497 42.9825 80.1989 53.9406C77.4857 51.2567 72.1063 47.8228 72.1063 47.8228C72.1063 47.8228 71.0457 41.5527 70.3073 39.2087V39.2087ZM92.7743 129.827C54.005 143.849 25.9829 118.025 20.0116 109.012C20.0468 108.93 20.0468 108.854 20.0468 108.784C25.4379 85.9943 32.1065 58.7691 42.8067 50.7118C48.4029 41.0077 50.0203 26.604 60.0525 19.0565C62.584 26.604 66.5394 42.25 69.2525 49.7976C81.1189 61.6698 99.0619 76.4368 111.128 82.5546C112.37 83.2578 113.993 88.3031 113.993 88.3031L109.159 94.3857L57.3862 89.188C56.2142 89.0708 55.0774 89.0239 53.9054 89.0239C50.5711 89.0239 47.1665 89.4517 43.1642 90.0787C45.6957 83.8027 51.0751 78.7339 51.0751 78.7339C51.0751 78.7339 46.0648 75.6926 42.2559 75.1886C43.3517 72.6572 46.2465 69.3932 46.938 68.52C45.514 69.0299 35.0716 73.7237 34.0051 77.6791C39.0271 78.9331 42.6133 80.5329 42.6133 80.5329C42.6133 80.5329 37.0523 86.1408 35.9858 95.839C35.9858 95.839 52.5107 93.3134 64.9279 94.9424C65.2971 95.1182 65.4788 95.1182 65.6604 95.1182L72.118 95.2999L92.6805 129.528L92.8387 129.791C92.8323 129.803 92.8228 129.812 92.8114 129.818C92.8001 129.824 92.7872 129.827 92.7743 129.827V129.827ZM120.035 20.5976C106.839 7.4195 88.9562 0.0121729 70.3073 0C51.6611 0 33.7883 7.4421 20.5918 20.5976C7.4421 33.7883 0 51.6669 0 70.319C0 88.9712 7.4421 106.856 20.5859 119.999C27.1078 126.544 34.8574 131.736 43.3902 135.279C51.923 138.822 61.0712 140.645 70.3103 140.645C79.5493 140.645 88.6975 138.822 97.2303 135.279C105.763 131.736 113.513 126.544 120.035 119.999C133.225 106.856 140.615 88.9653 140.615 70.319C140.615 51.6728 133.225 33.7883 120.035 20.5976V20.5976Z" fill="black"/>
</svg>
